<svg width="25" height="25" viewBox="0 0 25 25" fill="none" xmlns="http://www.w3.org/2000/svg">
<path d="M12.1094 0C5.41992 0 0 5.41992 0 12.1094C0 18.7988 5.41992 24.2188 12.1094 24.2188C18.7988 24.2188 24.2188 18.7988 24.2188 12.1094C24.2188 5.41992 18.7988 0 12.1094 0ZM12.1094 4.6875C14.4824 4.6875 16.4062 6.61133 16.4062 8.98438C16.4062 11.3574 14.4824 13.2812 12.1094 13.2812C9.73633 13.2812 7.8125 11.3574 7.8125 8.98438C7.8125 6.61133 9.73633 4.6875 12.1094 4.6875ZM12.1094 21.4844C9.24316 21.4844 6.6748 20.1855 4.95605 18.1543C5.87402 16.4258 7.6709 15.2344 9.76562 15.2344C9.88281 15.2344 10 15.2539 10.1123 15.2881C10.7471 15.4932 11.4111 15.625 12.1094 15.625C12.8076 15.625 13.4766 15.4932 14.1064 15.2881C14.2187 15.2539 14.3359 15.2344 14.4531 15.2344C16.5479 15.2344 18.3447 16.4258 19.2627 18.1543C17.5439 20.1855 14.9756 21.4844 12.1094 21.4844Z" fill="#939393"/>
</svg>
